<svg width="14" height="14" viewBox="0 0 14 14" fill="none" xmlns="http://www.w3.org/2000/svg">
<g clip-path="url(#clip0_1_435)">
<path d="M-1.83942 2.54906C-1.83942 2.23621 -1.5858 1.9826 -1.27296 1.9826L15.5941 1.9826C15.907 1.9826 16.1606 2.23621 16.1606 2.54906C16.1606 2.8619 15.907 3.11552 15.5941 3.11552H-1.27296C-1.5858 3.11552 -1.83942 2.8619 -1.83942 2.54906ZM-1.83942 11.0459C-1.83942 10.7331 -1.5858 10.4795 -1.27296 10.4795H9.59413C9.90697 10.4795 10.1606 10.7331 10.1606 11.0459C10.1606 11.3588 9.90697 11.6124 9.59413 11.6124H-1.27296C-1.5858 11.6124 -1.83942 11.3588 -1.83942 11.0459ZM-1.83942 8.21363C-1.83942 7.90079 -1.5858 7.64717 -1.27296 7.64717H15.5941C15.907 7.64717 16.1606 7.90079 16.1606 8.21363C16.1606 8.52648 15.907 8.78009 15.5941 8.78009H-1.27296C-1.5858 8.78009 -1.83942 8.52648 -1.83942 8.21363ZM-1.83942 5.38135C-1.83942 5.0685 -1.5858 4.81489 -1.27296 4.81489H9.59413C9.90697 4.81489 10.1606 5.0685 10.1606 5.38135C10.1606 5.69419 9.90697 5.9478 9.59413 5.9478H-1.27296C-1.5858 5.9478 -1.83942 5.69419 -1.83942 5.38135Z" fill="#C1C1C1"/>
</g>
<defs>
<clipPath id="clip0_1_435">
<rect width="13.595" height="13.595" fill="white" transform="translate(0.160583)"/>
</clipPath>
</defs>
</svg>
