<svg width="15" height="14" viewBox="0 0 15 14" fill="none" xmlns="http://www.w3.org/2000/svg">
<path d="M2.23901 2.54906C2.23901 2.23621 2.49263 1.9826 2.80547 1.9826L11.8688 1.9826C12.1816 1.9826 12.4353 2.23621 12.4353 2.54906C12.4353 2.8619 12.1816 3.11552 11.8688 3.11552H2.80547C2.49263 3.11552 2.23901 2.8619 2.23901 2.54906ZM4.50484 11.0459C4.50484 10.7331 4.75846 10.4795 5.0713 10.4795H11.8688C12.1816 10.4795 12.4353 10.7331 12.4353 11.0459C12.4353 11.3588 12.1816 11.6124 11.8688 11.6124H5.0713C4.75846 11.6124 4.50484 11.3588 4.50484 11.0459ZM2.23901 8.21363C2.23901 7.90079 2.49263 7.64717 2.80547 7.64717H11.8688C12.1816 7.64717 12.4353 7.90079 12.4353 8.21363C12.4353 8.52648 12.1816 8.78009 11.8688 8.78009H2.80547C2.49263 8.78009 2.23901 8.52648 2.23901 8.21363ZM4.50484 5.38135C4.50484 5.0685 4.75846 4.81489 5.0713 4.81489H11.8688C12.1816 4.81489 12.4353 5.0685 12.4353 5.38135C12.4353 5.69419 12.1816 5.9478 11.8688 5.9478H5.0713C4.75846 5.9478 4.50484 5.69419 4.50484 5.38135Z" fill="#C1C1C1"/>
</svg>
