<svg width="14" height="14" viewBox="0 0 14 14" fill="none" xmlns="http://www.w3.org/2000/svg">
<path d="M2.61697 2.54906C2.61697 2.23621 2.87059 1.9826 3.18343 1.9826L11.1138 1.9826C11.4267 1.9826 11.6803 2.23621 11.6803 2.54906C11.6803 2.8619 11.4267 3.11552 11.1138 3.11552H3.18343C2.87059 3.11552 2.61697 2.8619 2.61697 2.54906ZM4.31635 11.0459C4.31635 10.7331 4.56996 10.4795 4.8828 10.4795H9.41447C9.72731 10.4795 9.98092 10.7331 9.98092 11.0459C9.98092 11.3588 9.72731 11.6124 9.41447 11.6124H4.8828C4.56996 11.6124 4.31635 11.3588 4.31635 11.0459ZM4.31635 5.38135C4.31635 5.0685 4.56996 4.81489 4.8828 4.81489H9.41447C9.72731 4.81489 9.98092 5.0685 9.98092 5.38135C9.98092 5.69419 9.72731 5.9478 9.41447 5.9478H4.8828C4.56996 5.9478 4.31635 5.69419 4.31635 5.38135ZM2.61697 8.21363C2.61697 7.90079 2.87059 7.64717 3.18343 7.64717H11.1138C11.4267 7.64717 11.6803 7.90079 11.6803 8.21363C11.6803 8.52648 11.4267 8.78009 11.1138 8.78009H3.18343C2.87059 8.78009 2.61697 8.52648 2.61697 8.21363Z" fill="#C1C1C1"/>
</svg>
