<svg width="14" height="14" viewBox="0 0 14 14" fill="none" xmlns="http://www.w3.org/2000/svg">
<path d="M4.53166 6.23103H7.08072C7.4563 6.23103 7.81651 6.08183 8.08208 5.81625C8.34766 5.55068 8.49686 5.19047 8.49686 4.81489C8.49686 4.4393 8.34766 4.0791 8.08208 3.81352C7.81651 3.54795 7.4563 3.39875 7.08072 3.39875H4.53166V6.23103ZM10.1962 8.78009C10.1962 9.11484 10.1303 9.44631 10.0022 9.75557C9.8741 10.0648 9.68634 10.3458 9.44963 10.5825C9.21293 10.8193 8.93193 11.007 8.62266 11.1351C8.31339 11.2632 7.98192 11.3292 7.64718 11.3292H4.04874C3.68976 11.3292 3.39874 11.0381 3.39874 10.6792V2.91583C3.39874 2.55685 3.68976 2.26583 4.04874 2.26583H7.08072C7.57974 2.26585 8.06779 2.41235 8.48433 2.68715C8.90087 2.96195 9.2276 3.35298 9.42398 3.81173C9.62037 4.27049 9.67778 4.7768 9.5891 5.26788C9.50042 5.75896 9.26954 6.21321 8.9251 6.57431C9.3118 6.79823 9.6328 7.1199 9.85591 7.50706C10.079 7.89422 10.1964 8.33325 10.1962 8.78009ZM4.53166 7.36395V10.1962H7.64718C8.02276 10.1962 8.38296 10.047 8.64854 9.78146C8.91412 9.51588 9.06332 9.15568 9.06332 8.78009C9.06332 8.40451 8.91412 8.04431 8.64854 7.77873C8.38296 7.51315 8.02276 7.36395 7.64718 7.36395H4.53166Z" fill="#C1C1C1"/>
</svg>
