<svg width="14" height="14" viewBox="0 0 14 14" fill="none" xmlns="http://www.w3.org/2000/svg">
<path fill-rule="evenodd" clip-rule="evenodd" d="M3.07014 3.39875C2.85384 3.39875 2.60484 3.60214 2.60484 3.9475V7.25205L4.09936 5.25255C4.11559 5.23083 4.13336 5.21031 4.15253 5.19114C4.70557 4.6381 5.60223 4.6381 6.15526 5.19114C6.16703 5.20291 6.17828 5.21519 6.18896 5.22795L8.21177 7.64285L8.82581 7.03212L8.82648 7.03146C9.37957 6.47908 10.2757 6.47931 10.8285 7.03213C10.8422 7.04576 10.8551 7.06009 10.8673 7.07505L11.1017 7.363V3.9475C11.1017 3.60214 10.8527 3.39875 10.6364 3.39875H3.07014ZM12.2346 3.9475C12.2346 3.06103 11.5598 2.26583 10.6364 2.26583H3.07014C2.14679 2.26583 1.47192 3.06103 1.47192 3.9475V10.1962C1.47192 10.8219 1.97915 11.3292 2.60484 11.3292H11.1017C11.7274 11.3292 12.2346 10.8219 12.2346 10.1962V3.9475ZM11.1017 9.15749L10.0118 7.81873C9.90057 7.72284 9.73245 7.72767 9.6269 7.83322L9.62582 7.8343L8.5732 8.88123C8.46073 8.9931 8.3065 9.05268 8.14802 9.04548C7.98955 9.03827 7.84136 8.96495 7.7395 8.84334L5.34078 5.97967C5.23701 5.88838 5.08243 5.88588 4.97589 5.97218L2.60484 9.14437V9.64748C2.60484 9.99284 2.85384 10.1962 3.07014 10.1962H10.6364C10.8527 10.1962 11.1017 9.99284 11.1017 9.64748V9.15749Z" fill="#C1C1C1"/>
<path d="M8.55264 5.9478C9.02167 5.9478 9.40233 5.56799 9.40233 5.09812C9.40233 4.62909 9.02167 4.24843 8.55264 4.24843C8.08362 4.24843 7.70296 4.62909 7.70296 5.09812C7.70296 5.56799 8.08362 5.9478 8.55264 5.9478Z" fill="#C1C1C1"/>
</svg>
