<svg width="14" height="14" viewBox="0 0 14 14" fill="none" xmlns="http://www.w3.org/2000/svg">
<path d="M1.72522 2.83229C1.72522 2.51944 1.97883 2.26583 2.29168 2.26583H11.355C11.6678 2.26583 11.9215 2.51944 11.9215 2.83229C11.9215 3.14513 11.6678 3.39875 11.355 3.39875H2.29168C1.97883 3.39875 1.72522 3.14513 1.72522 2.83229ZM1.72522 11.3291C1.72522 11.0163 1.97883 10.7627 2.29168 10.7627H11.355C11.6678 10.7627 11.9215 11.0163 11.9215 11.3291C11.9215 11.642 11.6678 11.8956 11.355 11.8956H2.29168C1.97883 11.8956 1.72522 11.642 1.72522 11.3291ZM6.25688 8.49686C6.25688 8.18402 6.51049 7.9304 6.82334 7.9304H11.355C11.6678 7.9304 11.9215 8.18402 11.9215 8.49686C11.9215 8.80971 11.6678 9.06332 11.355 9.06332H6.82334C6.51049 9.06332 6.25688 8.80971 6.25688 8.49686ZM6.25688 5.66458C6.25688 5.35173 6.51049 5.09812 6.82334 5.09812H11.355C11.6678 5.09812 11.9215 5.35173 11.9215 5.66458C11.9215 5.97742 11.6678 6.23103 11.355 6.23103H6.82334C6.51049 6.23103 6.25688 5.97742 6.25688 5.66458ZM2.28428 7.56989C1.98831 7.31093 1.98831 6.85051 2.28428 6.59154L2.91302 6.04139C3.3333 5.67365 3.99105 5.97211 3.99105 6.53057V7.63087C3.99105 8.18932 3.3333 8.48779 2.91302 8.12005L2.28428 7.56989Z" fill="#C1C1C1"/>
</svg>
