<svg width="14" height="14" viewBox="0 0 14 14" fill="none" xmlns="http://www.w3.org/2000/svg">
<path d="M1.91373 2.83229C1.91373 2.51944 2.16734 2.26583 2.48018 2.26583H11.5435C11.8564 2.26583 12.11 2.51944 12.11 2.83229C12.11 3.14513 11.8564 3.39875 11.5435 3.39875H2.48019C2.16734 3.39875 1.91373 3.14513 1.91373 2.83229ZM1.91373 11.3291C1.91373 11.0163 2.16734 10.7627 2.48018 10.7627H11.5435C11.8564 10.7627 12.11 11.0163 12.11 11.3291C12.11 11.642 11.8564 11.8956 11.5435 11.8956H2.48019C2.16734 11.8956 1.91373 11.642 1.91373 11.3291ZM6.44539 8.49686C6.44539 8.18402 6.699 7.9304 7.01185 7.9304H11.5435C11.8564 7.9304 12.11 8.18402 12.11 8.49686C12.11 8.80971 11.8564 9.06332 11.5435 9.06332H7.01184C6.699 9.06332 6.44539 8.80971 6.44539 8.49686ZM6.44539 5.66458C6.44539 5.35173 6.699 5.09812 7.01185 5.09812H11.5435C11.8564 5.09812 12.11 5.35173 12.11 5.66458C12.11 5.97742 11.8564 6.23103 11.5435 6.23103H7.01184C6.699 6.23103 6.44539 5.97742 6.44539 5.66458ZM3.6205 6.59154C3.91646 6.85051 3.91646 7.31093 3.6205 7.56989L2.99175 8.12005C2.57148 8.48779 1.91373 8.18932 1.91373 7.63087V6.53057C1.91373 5.97211 2.57148 5.67365 2.99175 6.04139L3.6205 6.59154Z" fill="#C1C1C1"/>
</svg>
