<svg width="14" height="14" viewBox="0 0 14 14" fill="none" xmlns="http://www.w3.org/2000/svg">
<path fill-rule="evenodd" clip-rule="evenodd" d="M5.28877 2.83229C5.28877 2.51944 5.54238 2.26583 5.85523 2.26583H10.9533C11.2662 2.26583 11.5198 2.51944 11.5198 2.83229C11.5198 3.14513 11.2662 3.39875 10.9533 3.39875H8.82074L6.34249 10.1962H8.12106C8.4339 10.1962 8.68752 10.4498 8.68752 10.7627C8.68752 11.0755 8.4339 11.3292 8.12106 11.3292H3.02294C2.71009 11.3292 2.45648 11.0755 2.45648 10.7627C2.45648 10.4498 2.71009 10.1962 3.02294 10.1962H5.15554L7.6338 3.39875H5.85523C5.54238 3.39875 5.28877 3.14513 5.28877 2.83229Z" fill="#C1C1C1"/>
</svg>
