<svg width="15" height="14" viewBox="0 0 15 14" fill="none" xmlns="http://www.w3.org/2000/svg">
<path d="M2.42966 2.54906C2.42966 2.23621 2.68327 1.9826 2.99611 1.9826L12.0594 1.9826C12.3723 1.9826 12.6259 2.23621 12.6259 2.54906C12.6259 2.8619 12.3723 3.11552 12.0594 3.11552H2.99612C2.68327 3.11552 2.42966 2.8619 2.42966 2.54906ZM2.42966 11.0459C2.42966 10.7331 2.68327 10.4795 2.99611 10.4795H12.0594C12.3723 10.4795 12.6259 10.7331 12.6259 11.0459C12.6259 11.3588 12.3723 11.6124 12.0594 11.6124H2.99612C2.68327 11.6124 2.42966 11.3588 2.42966 11.0459ZM2.42966 8.21363C2.42966 7.90079 2.68327 7.64717 2.99611 7.64717H12.0594C12.3723 7.64717 12.6259 7.90079 12.6259 8.21363C12.6259 8.52648 12.3723 8.78009 12.0594 8.78009H2.99612C2.68327 8.78009 2.42966 8.52648 2.42966 8.21363ZM2.42966 5.38135C2.42966 5.0685 2.68327 4.81489 2.99611 4.81489H12.0594C12.3723 4.81489 12.6259 5.0685 12.6259 5.38135C12.6259 5.69419 12.3723 5.9478 12.0594 5.9478H2.99612C2.68327 5.9478 2.42966 5.69419 2.42966 5.38135Z" fill="#C1C1C1"/>
</svg>
