<svg width="15" height="14" viewBox="0 0 15 14" fill="none" xmlns="http://www.w3.org/2000/svg">
<path d="M9.37029 10.2157C9.05749 10.2157 8.80391 9.96212 8.80391 9.64932C8.80391 9.33652 9.05749 9.08295 9.37029 9.08295H9.93666C10.2342 9.08295 10.5289 9.02434 10.8038 8.91047C11.0787 8.7966 11.3285 8.6297 11.5389 8.41929C11.7493 8.20888 11.9162 7.95909 12.0301 7.68418C12.1439 7.40927 12.2025 7.11462 12.2025 6.81706C12.2025 6.5195 12.1439 6.22486 12.0301 5.94995C11.9162 5.67504 11.7493 5.42525 11.5389 5.21484C11.3285 5.00443 11.0787 4.83753 10.8038 4.72366C10.5289 4.60978 10.2342 4.55118 9.93666 4.55118H9.37029C9.05749 4.55118 8.80391 4.2976 8.80391 3.9848C8.80391 3.67201 9.05749 3.41843 9.37029 3.41843L9.93666 3.41843C10.8332 3.42573 11.6906 3.78702 12.322 4.42359C12.9534 5.06017 13.3077 5.92046 13.3077 6.81706C13.3077 7.71367 12.9534 8.57396 12.322 9.21053C11.6906 9.84711 10.8332 10.2084 9.93666 10.2157H9.37029ZM6.53762 9.64932C6.53762 9.96212 6.28405 10.2157 5.97125 10.2157H5.40488C4.95624 10.2193 4.51131 10.1341 4.09576 9.96498C3.68021 9.79582 3.30227 9.54606 2.98373 9.23011C2.66519 8.91415 2.41236 8.53825 2.23982 8.1241C2.06729 7.70994 1.97845 7.26572 1.97845 6.81706C1.97845 6.36841 2.06729 5.92419 2.23982 5.51003C2.41236 5.09587 2.66519 4.71998 2.98373 4.40402C3.30227 4.08807 3.68021 3.83831 4.09576 3.66915C4.51131 3.49999 4.95624 3.41478 5.40488 3.41843L5.97125 3.41843C6.28405 3.41843 6.53762 3.67201 6.53762 3.9848C6.53762 4.2976 6.28405 4.55118 5.97125 4.55118H5.40488C5.10732 4.55118 4.81267 4.60978 4.53776 4.72366C4.26285 4.83753 4.01306 5.00443 3.80265 5.21484C3.59225 5.42525 3.42534 5.67504 3.31147 5.94995C3.1976 6.22486 3.13899 6.5195 3.13899 6.81706C3.13899 7.11462 3.1976 7.40927 3.31147 7.68418C3.42534 7.95909 3.59225 8.20888 3.80265 8.41929C4.01306 8.6297 4.26285 8.7966 4.53776 8.91047C4.81267 9.02434 5.10732 9.08295 5.40488 9.08295H5.97125C6.28405 9.08295 6.53762 9.33652 6.53762 9.64932ZM9.93628 6.25029C10.2493 6.25029 10.503 6.50404 10.503 6.81704C10.503 7.13007 10.2493 7.38382 9.93624 7.3838L5.40526 7.38348C5.09243 7.38345 4.83882 7.12991 4.83871 6.81708C4.8386 6.50409 5.0923 6.25029 5.4053 6.25029H9.93628Z" fill="#C1C1C1"/>
</svg>
