<svg width="4" height="3" viewBox="0 0 4 3" fill="none" xmlns="http://www.w3.org/2000/svg">
<path opacity="0.6" d="M0.0880462 2.56644C0.144439 2.62334 0.220914 2.65531 0.300654 2.65531C0.380393 2.65531 0.456868 2.62334 0.513261 2.56644L2.00182 1.06393L3.49037 2.56644C3.54709 2.62173 3.62305 2.65232 3.70189 2.65163C3.78074 2.65094 3.85617 2.61902 3.91192 2.56274C3.96768 2.50646 3.9993 2.43033 3.99999 2.35074C4.00067 2.27116 3.97036 2.19448 3.91558 2.13724L2.21442 0.420125C2.15803 0.36322 2.08156 0.331253 2.00182 0.331253C1.92208 0.331253 1.8456 0.36322 1.78921 0.420125L0.0880462 2.13724C0.0316702 2.19416 0 2.27135 0 2.35184C0 2.43232 0.0316702 2.50951 0.0880462 2.56644Z" fill="white"/>
</svg>
