<svg width="14" height="14" viewBox="0 0 14 14" fill="none" xmlns="http://www.w3.org/2000/svg">
<path fill-rule="evenodd" clip-rule="evenodd" d="M5.2199 2.83229C5.2199 2.51944 5.47351 2.26583 5.78635 2.26583H11.4509C11.7638 2.26583 12.0174 2.51944 12.0174 2.83229V3.9652C12.0174 4.27805 11.7638 4.53166 11.4509 4.53166C11.1381 4.53166 10.8845 4.27805 10.8845 3.9652V3.39875H7.98579L7.83539 4.60192C7.79659 4.91235 7.51348 5.13255 7.20305 5.09374C6.89262 5.05494 6.67242 4.77183 6.71122 4.4614L6.84405 3.39875H5.78635C5.47351 3.39875 5.2199 3.14513 5.2199 2.83229ZM2.53302 2.73658C2.7423 2.50404 3.10047 2.48519 3.33301 2.69447L11.8299 10.3416C12.0624 10.5509 12.0813 10.9091 11.872 11.1416C11.6627 11.3742 11.3045 11.393 11.072 11.1837L7.35951 7.8425L6.9149 11.3994C6.87609 11.7098 6.59298 11.93 6.28255 11.8912C5.97212 11.8524 5.75193 11.5693 5.79073 11.2589L6.33323 6.91886L2.57513 3.53656C2.34259 3.32728 2.32374 2.96911 2.53302 2.73658Z" fill="#C1C1C1"/>
</svg>
