<svg width="15" height="14" viewBox="0 0 15 14" fill="none" xmlns="http://www.w3.org/2000/svg">
<path d="M7.9158 2.54906C7.9158 2.23621 8.16941 1.9826 8.48225 1.9826L12.4475 1.9826C12.7603 1.9826 13.0139 2.23621 13.0139 2.54906C13.0139 2.8619 12.7603 3.11552 12.4475 3.11552H8.48225C8.16941 3.11552 7.9158 2.8619 7.9158 2.54906Z" fill="#C1C1C1"/>
<path d="M3.95059 10.4795C3.95059 10.7923 4.2042 11.0459 4.51705 11.0459C4.8299 11.0459 5.08351 10.7923 5.08351 10.4795V3.9166L5.81588 4.64897C6.03708 4.87017 6.39576 4.87017 6.61697 4.64897C6.83817 4.42777 6.83817 4.06909 6.61697 3.84789L4.91759 2.14851C4.81138 2.04228 4.66728 1.9826 4.51705 1.9826C4.36683 1.9826 4.22272 2.04228 4.11651 2.14851L2.41713 3.84789C2.19592 4.06909 2.19592 4.42777 2.41713 4.64897C2.63834 4.87017 2.99702 4.87017 3.21822 4.64897L3.95059 3.9166V10.4795Z" fill="#C1C1C1"/>
<path d="M3.95059 4.24843C3.95059 3.93558 4.2042 3.68197 4.51705 3.68197C4.8299 3.68197 5.08351 3.93558 5.08351 4.24843V9.67838L5.81588 8.946C6.03708 8.7248 6.39576 8.7248 6.61697 8.946C6.83817 9.16721 6.83817 9.52589 6.61697 9.74709L4.91759 11.4465C4.81138 11.5527 4.66728 11.6124 4.51705 11.6124C4.36683 11.6124 4.22272 11.5527 4.11651 11.4465L2.41713 9.74709C2.19592 9.52589 2.19592 9.16721 2.41713 8.946C2.63834 8.7248 2.99702 8.7248 3.21822 8.946L3.95059 9.67838V4.24843Z" fill="#C1C1C1"/>
<path d="M7.9158 5.38135C7.9158 5.0685 8.16941 4.81489 8.48225 4.81489H12.4475C12.7603 4.81489 13.0139 5.0685 13.0139 5.38135C13.0139 5.69419 12.7603 5.9478 12.4475 5.9478H8.48225C8.16941 5.9478 7.9158 5.69419 7.9158 5.38135Z" fill="#C1C1C1"/>
<path d="M7.9158 8.21363C7.9158 7.90079 8.16941 7.64717 8.48225 7.64717H12.4475C12.7603 7.64717 13.0139 7.90079 13.0139 8.21363C13.0139 8.52648 12.7603 8.78009 12.4475 8.78009H8.48225C8.16941 8.78009 7.9158 8.52648 7.9158 8.21363Z" fill="#C1C1C1"/>
<path d="M7.9158 11.0459C7.9158 10.7331 8.16941 10.4795 8.48225 10.4795H12.4475C12.7603 10.4795 13.0139 10.7331 13.0139 11.0459C13.0139 11.3588 12.7603 11.6124 12.4475 11.6124H8.48225C8.16941 11.6124 7.9158 11.3588 7.9158 11.0459Z" fill="#C1C1C1"/>
</svg>
