<svg width="15" height="14" viewBox="0 0 15 14" fill="none" xmlns="http://www.w3.org/2000/svg">
<path d="M10.2869 7.93041C10.4172 8.2227 10.4829 8.54784 10.4829 8.90471C10.4829 9.6649 10.186 10.2597 9.59296 10.6874C8.99874 11.115 8.17908 11.3292 7.13283 11.3292C6.30987 11.3292 5.49447 11.1598 4.68623 10.8207C4.49373 10.7399 4.37418 10.5481 4.37418 10.3393C4.37418 9.9232 4.8289 9.65858 5.21732 9.8079C5.8081 10.035 6.40803 10.1487 7.01727 10.1487C8.46231 10.1487 9.18681 9.73401 9.1919 8.90415C9.19489 8.73589 9.16393 8.56876 9.10086 8.41274C9.03779 8.25673 8.94391 8.11503 8.82484 7.99611L8.75687 7.92984H2.83568C2.52284 7.92984 2.26923 7.67623 2.26923 7.36338C2.26923 7.05054 2.52284 6.79692 2.83568 6.79692H11.899C12.2119 6.79692 12.4655 7.05054 12.4655 7.36338C12.4655 7.67623 12.2119 7.92984 11.899 7.92984H10.2869V7.93041ZM7.92035 6.21158C7.93103 6.21525 7.92838 6.23103 7.9171 6.23103H4.89523C4.89274 6.23103 4.89034 6.2301 4.8885 6.22842C4.79038 6.13866 4.70018 6.0406 4.61889 5.93534C4.37418 5.61926 4.25183 5.23747 4.25183 4.7877C4.25183 4.08756 4.5158 3.49221 5.04317 3.00166C5.57167 2.51111 6.38794 2.26583 7.4931 2.26583C8.21932 2.26583 8.91843 2.40696 9.58969 2.68922C9.77247 2.76608 9.88468 2.94898 9.88468 3.14726C9.88468 3.54586 9.44739 3.80265 9.06854 3.67872C8.6202 3.53206 8.14721 3.45879 7.64944 3.45879C6.24463 3.45879 5.54278 3.90176 5.54278 4.7877C5.54278 5.02561 5.66627 5.23294 5.91325 5.41024C6.16022 5.58754 6.82694 5.83508 6.82694 5.83508L7.92035 6.21158Z" fill="#C1C1C1"/>
</svg>
