<svg width="15" height="14" viewBox="0 0 15 14" fill="none" xmlns="http://www.w3.org/2000/svg">
<path d="M2.4599 11.3291C2.4599 11.0163 2.71351 10.7627 3.02636 10.7627H12.0897C12.4025 10.7627 12.6561 11.0163 12.6561 11.3291C12.6561 11.642 12.4025 11.8956 12.0897 11.8956H3.02636C2.71351 11.8956 2.4599 11.642 2.4599 11.3291Z" fill="#C1C1C1"/>
<path d="M9.53835 7.9304H5.57768L4.81378 9.84016C4.72776 10.0552 4.51947 10.1962 4.28785 10.1962C3.88712 10.1962 3.6131 9.7915 3.76193 9.41942L6.84913 2.05545C6.93515 1.84039 7.14344 1.69937 7.37507 1.69937H7.74097C7.97259 1.69937 8.18088 1.84039 8.26691 2.05545L11.3541 9.41942C11.5029 9.7915 11.2289 10.1962 10.8282 10.1962C10.5966 10.1962 10.3883 10.0552 10.3023 9.84016L9.53835 7.9304ZM9.08519 6.79749L7.55802 3.3336L6.03085 6.79749H9.08519Z" fill="#C1C1C1"/>
</svg>
