<svg width="14" height="14" viewBox="0 0 14 14" fill="none" xmlns="http://www.w3.org/2000/svg">
<path d="M4.9108 2.26583C4.9108 1.95298 4.65719 1.69937 4.34434 1.69937C4.0315 1.69937 3.77788 1.95298 3.77788 2.26583V6.23103C3.77788 8.42095 4.34434 10.1962 7.17663 10.1962C10.0089 10.1962 10.5754 8.42095 10.5754 6.23103V2.26583C10.5754 1.95298 10.3218 1.69937 10.0089 1.69937C9.69607 1.69937 9.44246 1.95298 9.44246 2.26583V6.23103C9.44246 7.79526 9.44246 9.06332 7.17663 9.06332C4.9108 9.06332 4.9108 7.79526 4.9108 6.23103V2.26583Z" fill="#C1C1C1"/>
<path d="M3.77788 10.7627C3.46504 10.7627 3.21143 11.0163 3.21143 11.3291C3.21143 11.642 3.46504 11.8956 3.77788 11.8956H10.5754C10.8882 11.8956 11.1418 11.642 11.1418 11.3291C11.1418 11.0163 10.8882 10.7627 10.5754 10.7627H3.77788Z" fill="#C1C1C1"/>
</svg>
