<svg width="4" height="4" viewBox="0 0 4 4" fill="none" xmlns="http://www.w3.org/2000/svg">
<path opacity="0.6" d="M3.91195 0.86702C3.85556 0.810116 3.77909 0.778148 3.69935 0.778148C3.61961 0.778148 3.54313 0.810116 3.48674 0.86702L1.99818 2.36953L0.509631 0.86702C0.452915 0.811728 0.376952 0.781133 0.298105 0.781825C0.219258 0.782516 0.143834 0.814439 0.0880783 0.870717C0.0323226 0.926996 0.000696898 1.00313 1.16825e-05 1.08271C-0.000673294 1.1623 0.0296371 1.23897 0.0844154 1.29622L1.78558 3.01333C1.84197 3.07024 1.91844 3.1022 1.99818 3.1022C2.07792 3.1022 2.1544 3.07024 2.21079 3.01333L3.91195 1.29622C3.96833 1.2393 4 1.16211 4 1.08162C4 1.00113 3.96833 0.923942 3.91195 0.86702Z" fill="white"/>
</svg>
