<svg xmlns="http://www.w3.org/2000/svg" width="394" height="269" viewBox="0 0 394 269" version="1.1"><path d="M 218.142 142.515 C 208.783 158.021, 208.783 158.021, 218.434 174.566 C 232.922 199.405, 236.493 204.636, 240.997 207.617 C 245.244 210.427, 252.758 211.780, 257.505 210.588 C 261.522 209.580, 268.694 202.368, 270.573 197.447 C 272.575 192.207, 272.174 184.211, 269.646 178.922 C 268.026 175.534, 229.728 127.775, 228.214 127.255 C 227.821 127.120, 223.289 133.987, 218.142 142.515" stroke="none" fill="#fc0506" fill-rule="evenodd"/><path d="M 238.844 13.394 C 232.021 15.831, 226.256 19.926, 219.869 26.871 C 212.244 35.164, 209.367 39.802, 182.442 87.198 C 155.872 133.970, 146.116 147.132, 130.547 157.209 C 119.512 164.351, 111.027 165.377, 95.672 161.426 C 81.418 157.758, 67.481 147.843, 61.785 137.319 C 46.400 108.893, 60.911 73.492, 91.256 65.421 C 106.171 61.454, 119.227 62.895, 132.920 70.019 C 141.191 74.322, 152.801 84.219, 157.454 90.934 C 160.218 94.923, 160.416 95.024, 162.057 93.301 C 164.719 90.505, 188.086 59.939, 188.615 58.561 C 189.311 56.748, 181.214 46.247, 174.427 40.160 C 147.755 16.241, 107.072 9.392, 70.059 22.590 C 40.401 33.165, 21.809 54.348, 13.817 86.670 C 10.649 99.483, 10.629 120.968, 13.773 133.377 C 20.691 160.677, 38.246 182.396, 62.828 194.067 C 85.078 204.630, 114.759 208.479, 133.289 203.203 C 154.902 197.048, 175.618 182.304, 190.392 162.560 C 199.079 150.950, 222.213 110.056, 235.136 83.465 C 241.699 69.961, 243.705 66.687, 246.209 65.392 C 249.053 63.921, 249.428 63.940, 251.537 65.655 C 252.785 66.670, 265.718 85.275, 280.278 107 C 318.753 164.412, 333.319 185.897, 337.357 191.188 C 351.203 209.337, 376.508 203.036, 376.270 181.500 C 376.234 178.200, 375.457 173.340, 374.545 170.700 C 372.665 165.259, 280.674 34.627, 271.326 24.125 C 261.841 13.468, 249.786 9.485, 238.844 13.394 M 272.195 189.500 C 272.215 191.150, 272.439 191.704, 272.693 190.731 C 272.947 189.758, 272.930 188.408, 272.656 187.731 C 272.382 187.054, 272.175 187.850, 272.195 189.500 M 264.924 205.750 C 262.500 208.500, 262.500 208.500, 265.250 206.076 C 266.762 204.742, 268 203.505, 268 203.326 C 268 202.541, 267.190 203.180, 264.924 205.750 M 250.762 211.707 C 252.006 211.946, 253.806 211.937, 254.762 211.687 C 255.718 211.437, 254.700 211.241, 252.500 211.252 C 250.300 211.263, 249.518 211.468, 250.762 211.707" stroke="none" fill="#fafafa" fill-rule="evenodd"/></svg>